<svg width="32" height="32" viewBox="0 0 32 32" fill="none" xmlns="http://www.w3.org/2000/svg">
<g>
<path d="M16.0053 7.78406C11.468 7.78406 7.79468 11.4614 7.79468 15.9947C7.79468 20.5321 11.472 24.2054 16.0053 24.2054C20.5427 24.2054 24.216 20.5281 24.216 15.9947C24.216 11.4574 20.5387 7.78406 16.0053 7.78406ZM16.0053 21.3241C13.06 21.3241 10.676 18.9387 10.676 15.9947C10.676 13.0507 13.0613 10.6654 16.0053 10.6654C18.9493 10.6654 21.3347 13.0507 21.3347 15.9947C21.336 18.9387 18.9507 21.3241 16.0053 21.3241Z"/>
<path d="M22.5973 0.101248C19.6533 -0.0360854 12.3613 -0.0294187 9.4146 0.101248C6.82527 0.222581 4.54127 0.847914 2.69994 2.68925C-0.377397 5.76658 0.0159368 9.91325 0.0159368 15.9946C0.0159368 22.2186 -0.33073 26.2692 2.69994 29.2999C5.78927 32.3879 9.99594 31.9839 16.0053 31.9839C22.1706 31.9839 24.2986 31.9879 26.4786 31.1439C29.4426 29.9932 31.6799 27.3439 31.8986 22.5852C32.0373 19.6399 32.0293 12.3492 31.8986 9.40258C31.6346 3.78525 28.6199 0.378581 22.5973 0.101248ZM27.2573 27.2639C25.2399 29.2812 22.4413 29.1012 15.9666 29.1012C9.29994 29.1012 6.6266 29.1999 4.67594 27.2439C2.42927 25.0079 2.83594 21.4172 2.83594 15.9732C2.83594 8.60658 2.07994 3.30125 9.47327 2.92258C11.1719 2.86258 11.6719 2.84258 15.9479 2.84258L16.0079 2.88258C23.1133 2.88258 28.6879 2.13858 29.0226 9.53058C29.0986 11.2172 29.1159 11.7239 29.1159 15.9932C29.1146 22.5826 29.2399 25.2719 27.2573 27.2639Z"/>
<path d="M24.5413 9.37859C25.601 9.37859 26.46 8.51957 26.46 7.45992C26.46 6.40027 25.601 5.54126 24.5413 5.54126C23.4817 5.54126 22.6227 6.40027 22.6227 7.45992C22.6227 8.51957 23.4817 9.37859 24.5413 9.37859Z"/>
</svg>
