<svg width="24" height="24" viewBox="0 0 24 24" fill="none" xmlns="http://www.w3.org/2000/svg">
<path d="M13.4071 12.0062L23.6949 1.71843C24.092 1.33495 24.103 0.702221 23.7195 0.305155C23.336 -0.0919108 22.7033 -0.102921 22.3062 0.280558C22.2979 0.288581 22.2897 0.29678 22.2816 0.305155L11.9938 10.593L1.70594 0.305097C1.30887 -0.0783825 0.67614 -0.0673724 0.292661 0.329694C-0.0814484 0.717038 -0.0814484 1.33108 0.292661 1.71843L10.5805 12.0062L0.292661 22.2941C-0.0975536 22.6843 -0.0975536 23.3171 0.292661 23.7073C0.682934 24.0975 1.31566 24.0975 1.70594 23.7073L11.9938 13.4195L22.2816 23.7073C22.6787 24.0908 23.3114 24.0798 23.6949 23.6827C24.0689 23.2954 24.0689 22.6813 23.6949 22.2941L13.4071 12.0062Z" fill="#C1C1C1"/>
</svg>
