<svg width="200" height="60" viewBox="0 0 200 60" fill="none" xmlns="http://www.w3.org/2000/svg">
<rect opacity="0.2" width="200" height="60" fill="white"/>
<path opacity="0.2" d="M54.6482 59.0669C54.6482 58.5552 43.174 58.1338 29.0366 58.1338C14.8993 58.1338 3.42505 58.5552 3.42505 59.0669C3.42505 59.5786 14.8993 60 29.0366 60C43.2069 60 54.6482 59.5786 54.6482 59.0669Z" fill="#5D5D5D"/>
<path d="M29.3985 11.8098C40.544 11.8098 49.5853 20.0873 49.5853 30.2913V48.7727H29.3985C18.253 48.7727 9.21167 40.4952 9.21167 30.2913V11.8098H29.3985Z" fill="#63A60E"/>
<path opacity="0.3" d="M46.692 20.7796C45.0153 22.5555 43.9961 24.8732 43.9961 27.4016C43.9961 31.1641 46.2318 34.445 49.5524 36.2209V30.2912C49.5524 26.8297 48.5332 23.5789 46.692 20.7796Z" fill="#63A60E"/>
<path d="M38.7685 13.9469C35.6122 15.6024 33.5081 18.7027 33.5081 22.2846C33.5081 27.5822 38.2095 31.8865 43.996 31.8865C46.0344 31.8865 47.9413 31.3447 49.5523 30.4116V30.2912C49.5523 23.1876 45.1796 17.0171 38.7685 13.9469Z" fill="#63A60E"/>
<path opacity="0.5" d="M22.9216 15.3909C17.7269 15.3909 12.9597 17.0464 9.21167 19.8457V30.3205C9.21167 40.5245 18.253 48.802 29.3985 48.802H39.0645C42.5824 45.2502 44.7194 40.5546 44.7194 35.3773C44.7194 24.3306 34.9548 15.3909 22.9216 15.3909Z" fill="#E0EDCF"/>
<path d="M49.5524 48.7425L29.3985 48.7726C18.253 48.7726 9.21167 40.4951 9.21167 30.2912V11.8398L49.5524 48.7425Z" fill="#63A60E"/>
<path opacity="0.3" d="M12.335 18.4317C12.335 32.4584 24.7627 43.8061 40.0507 43.8061C41.3658 43.8061 42.648 43.7158 43.8974 43.5653L12.598 14.9401C12.4336 16.0839 12.335 17.2578 12.335 18.4317Z" fill="#63A60E"/>
<path opacity="0.3" d="M49.5523 48.7726L9.37598 11.9903C14.1103 18.4619 19.568 25.0237 25.1243 30.4417C29.4641 34.6557 41.9905 44.077 49.5523 48.7726Z" fill="#63A60E"/>
<path opacity="0.3" d="M22.3956 23.8799L9.21167 11.8398V30.3213C9.21167 38.4784 14.9981 45.4014 22.9874 47.8395C19.5681 44.679 17.4639 40.3446 17.4639 35.5888C17.4639 31.0738 19.3379 26.9802 22.3956 23.8799Z" fill="#63A60E"/>
<path opacity="0.3" d="M40.3467 40.3447C36.9274 44.1674 31.7328 46.6356 25.9135 46.6356C22.0339 46.6356 18.4174 45.552 15.4255 43.6858C19.0421 46.8463 23.9408 48.8028 29.3656 48.8028H49.5524V48.7727L40.3467 40.3447Z" fill="#63A60E"/>
<path opacity="0.3" d="M10.3953 22.8866C10.3953 19.9067 10.9542 17.017 12.0063 14.3682L9.21167 11.8398V30.3213C9.21167 40.5252 18.253 48.8027 29.3985 48.8027H49.5853V48.7726L47.5797 46.9365C44.6536 47.8997 41.5303 48.4114 38.2425 48.4114C22.8558 48.3813 10.3953 36.9734 10.3953 22.8866Z" fill="#E0EDCF"/>
<path d="M49.2235 52.3546C50.6372 51.9934 52.1167 52.776 52.4784 54.0703C52.8729 55.3646 52.0181 56.7191 50.5715 57.0502C49.1577 57.4114 47.6782 56.6288 47.3166 55.3345C46.9549 54.0402 47.8097 52.7158 49.2235 52.3546ZM48.6974 50.5185C46.1659 51.1506 44.6535 53.4984 45.3439 55.8161C46.0015 58.1338 48.5988 59.5184 51.1304 58.8863C53.662 58.2542 55.1743 55.8763 54.4839 53.5887C53.8263 51.271 51.229 49.9165 48.6974 50.5185Z" fill="#63A60E"/>
<path opacity="0.5" d="M52.0505 56.1768C51.6888 56.5982 51.1956 56.9293 50.6038 57.0798C49.1901 57.441 47.7106 56.6584 47.349 55.3641C47.086 54.4009 47.4476 53.4377 48.2367 52.8658C47.8421 52.3541 47.5134 51.7822 47.1846 51.2103C45.6065 52.2337 44.8174 54.0698 45.3434 55.8758C46.001 58.1935 48.5983 59.5781 51.1299 58.946C52.3135 58.645 53.2669 57.9828 53.8916 57.1099C53.2669 56.8089 52.6423 56.5079 52.0505 56.1768Z" fill="#63A60E"/>
<path d="M10.1648 52.3546C11.5785 52.0235 13.058 52.8061 13.4196 54.1004C13.7813 55.3947 12.9265 56.7492 11.5127 57.0803C10.099 57.4114 8.61952 56.6288 8.25787 55.3345C7.89622 54.0402 8.75103 52.6857 10.1648 52.3546ZM9.63872 50.5185C7.10716 51.1205 5.59479 53.4984 6.25234 55.8161C6.90989 58.1338 9.50721 59.5184 12.0388 58.9164C14.5704 58.3144 16.0827 55.9365 15.458 53.6188C14.7676 51.3011 12.1703 49.9165 9.63872 50.5185Z" fill="#63A60E"/>
<path opacity="0.5" d="M12.9597 56.207C12.598 56.6284 12.1049 56.9595 11.5131 57.0799C10.0993 57.411 8.61984 56.6284 8.25819 55.3341C7.99517 54.3709 8.3897 53.4077 9.14588 52.8358C8.75135 52.3241 8.42258 51.7522 8.12668 51.1803C6.54856 52.1736 5.72662 54.0097 6.25266 55.8157C6.91021 58.1334 9.50754 59.518 12.0391 58.916C13.2227 58.6451 14.209 57.9528 14.8008 57.0799C14.1433 56.8391 13.5515 56.5381 12.9597 56.207Z" fill="#63A60E"/>
<path d="M10.4938 10.5455C9.86915 10.5455 9.34311 10.0639 9.34311 9.49205C9.34311 7.02384 8.58693 5.15763 7.14031 3.92353C4.80601 1.90682 1.28812 2.11752 1.25524 2.11752C0.630565 2.17772 0.071647 1.72622 0.00589198 1.15432C-0.0598631 0.582418 0.4333 0.0707164 1.05797 0.0105162C1.25524 0.0105162 5.59507 -0.290485 8.68556 2.32822C10.6582 3.98373 11.6445 6.39174 11.6445 9.46194C11.6445 10.0639 11.1514 10.5455 10.4938 10.5455Z" fill="#63A60E"/>
<path d="M84.944 14.192C87.128 14.248 88.864 14.6307 90.152 15.34C91.4587 16.0307 92.392 16.9267 92.952 18.028C93.5307 19.1293 93.82 20.3333 93.82 21.64C93.82 22.48 93.6707 23.3387 93.372 24.216C93.092 25.0933 92.6067 25.9053 91.916 26.652C91.244 27.38 90.3387 27.9773 89.2 28.444C88.0613 28.9107 86.6427 29.1627 84.944 29.2V32.28H81.136V29.2C79.4187 29.1627 77.9813 28.9107 76.824 28.444C75.6853 27.9773 74.78 27.3707 74.108 26.624C73.436 25.8773 72.96 25.0747 72.68 24.216C72.4 23.3387 72.26 22.48 72.26 21.64C72.26 20.3333 72.54 19.1293 73.1 18.028C73.6787 16.9267 74.612 16.0307 75.9 15.34C77.2067 14.6307 78.952 14.248 81.136 14.192V11.728H84.944V14.192ZM81.136 17.496C79.3253 17.5707 78.056 17.9907 77.328 18.756C76.6 19.5027 76.236 20.4547 76.236 21.612C76.236 22.8627 76.628 23.88 77.412 24.664C78.196 25.4293 79.4373 25.8493 81.136 25.924V17.496ZM84.944 25.924C86.6613 25.8493 87.9027 25.4293 88.668 24.664C89.452 23.88 89.844 22.8627 89.844 21.612C89.844 20.4547 89.48 19.5027 88.752 18.756C88.0427 17.9907 86.7733 17.5707 84.944 17.496V25.924ZM103.994 12.008C106.57 12.008 108.446 12.568 109.622 13.688C110.817 14.7893 111.414 16.3107 111.414 18.252C111.414 19.4093 111.171 20.5013 110.686 21.528C110.201 22.536 109.389 23.348 108.25 23.964C107.13 24.58 105.599 24.888 103.658 24.888H101.838V32H97.6098V12.008H103.994ZM103.77 15.48H101.838V21.416H103.238C104.433 21.416 105.375 21.1827 106.066 20.716C106.775 20.2307 107.13 19.456 107.13 18.392C107.13 16.4507 106.01 15.48 103.77 15.48ZM126.7 32H115.192V12.008H126.7V15.48H119.42V19.876H126.196V23.348H119.42V28.5H126.7V32ZM156.004 32H130.86V12.008H135.088V28.472H141.304V12.008H145.56V28.472H151.776V12.008H156.004V32ZM179.191 21.976C179.191 24.048 178.846 25.8587 178.155 27.408C177.483 28.9387 176.447 30.1333 175.047 30.992C173.647 31.8507 171.855 32.28 169.671 32.28C167.506 32.28 165.714 31.8507 164.295 30.992C162.895 30.1333 161.85 28.9293 161.159 27.38C160.487 25.8307 160.151 24.02 160.151 21.948C160.151 19.876 160.487 18.0747 161.159 16.544C161.85 15.0133 162.895 13.828 164.295 12.988C165.714 12.1293 167.515 11.7 169.699 11.7C171.865 11.7 173.647 12.1293 175.047 12.988C176.447 13.828 177.483 15.0227 178.155 16.572C178.846 18.1027 179.191 19.904 179.191 21.976ZM164.603 21.976C164.603 24.0667 165.005 25.7187 165.807 26.932C166.61 28.1267 167.898 28.724 169.671 28.724C171.482 28.724 172.779 28.1267 173.563 26.932C174.347 25.7187 174.739 24.0667 174.739 21.976C174.739 19.8667 174.347 18.2147 173.563 17.02C172.779 15.8253 171.491 15.228 169.699 15.228C167.907 15.228 166.61 15.8253 165.807 17.02C165.005 18.2147 164.603 19.8667 164.603 21.976ZM199.629 32H194.812L187.561 21.864V32H183.333V12.008H187.561V21.696L194.729 12.008H199.237L191.957 21.612L199.629 32Z" fill="#63A60E"/>
<path d="M89.7996 45.704C89.7996 46.592 89.6516 47.368 89.3556 48.032C89.0676 48.688 88.6236 49.2 88.0236 49.568C87.4236 49.936 86.6556 50.12 85.7196 50.12C84.7916 50.12 84.0236 49.936 83.4156 49.568C82.8156 49.2 82.3676 48.684 82.0716 48.02C81.7836 47.356 81.6396 46.58 81.6396 45.692C81.6396 44.804 81.7836 44.032 82.0716 43.376C82.3676 42.72 82.8156 42.212 83.4156 41.852C84.0236 41.484 84.7956 41.3 85.7316 41.3C86.6596 41.3 87.4236 41.484 88.0236 41.852C88.6236 42.212 89.0676 42.724 89.3556 43.388C89.6516 44.044 89.7996 44.816 89.7996 45.704ZM83.5476 45.704C83.5476 46.6 83.7196 47.308 84.0636 47.828C84.4076 48.34 84.9596 48.596 85.7196 48.596C86.4956 48.596 87.0516 48.34 87.3876 47.828C87.7236 47.308 87.8916 46.6 87.8916 45.704C87.8916 44.8 87.7236 44.092 87.3876 43.58C87.0516 43.068 86.4996 42.812 85.7316 42.812C84.9636 42.812 84.4076 43.068 84.0636 43.58C83.7196 44.092 83.5476 44.8 83.5476 45.704ZM98.5944 50H96.7824V46.304H93.3864V50H91.5744V41.432H93.3864V44.792H96.7824V41.432H98.5944V50ZM107.53 50H105.718V42.944H103.618C103.57 43.312 103.518 43.712 103.462 44.144C103.414 44.576 103.358 45.016 103.294 45.464C103.238 45.904 103.178 46.324 103.114 46.724C103.05 47.116 102.986 47.464 102.922 47.768C102.818 48.264 102.678 48.688 102.502 49.04C102.334 49.392 102.098 49.66 101.794 49.844C101.498 50.028 101.11 50.12 100.63 50.12C100.318 50.12 100.03 50.076 99.7662 49.988V48.5C99.8702 48.532 99.9702 48.56 100.066 48.584C100.17 48.608 100.282 48.62 100.402 48.62C100.634 48.62 100.81 48.5 100.93 48.26C101.058 48.012 101.186 47.552 101.314 46.88C101.362 46.624 101.43 46.224 101.518 45.68C101.606 45.136 101.702 44.5 101.806 43.772C101.918 43.036 102.022 42.256 102.118 41.432H107.53V50ZM114.936 50L114.312 47.96H111.192L110.568 50H108.612L111.636 41.396H113.856L116.892 50H114.936ZM113.256 44.444C113.216 44.308 113.164 44.136 113.1 43.928C113.036 43.72 112.972 43.508 112.908 43.292C112.844 43.076 112.792 42.888 112.752 42.728C112.712 42.888 112.656 43.088 112.584 43.328C112.52 43.56 112.456 43.784 112.392 44C112.336 44.208 112.292 44.356 112.26 44.444L111.648 46.436H113.88L113.256 44.444ZM124.877 38.612C124.837 39.028 124.721 39.396 124.529 39.716C124.337 40.028 124.037 40.272 123.629 40.448C123.221 40.624 122.673 40.712 121.985 40.712C121.281 40.712 120.729 40.628 120.329 40.46C119.937 40.284 119.657 40.04 119.489 39.728C119.321 39.416 119.221 39.044 119.189 38.612H120.785C120.825 39.052 120.937 39.344 121.121 39.488C121.305 39.632 121.605 39.704 122.021 39.704C122.365 39.704 122.645 39.628 122.861 39.476C123.085 39.316 123.217 39.028 123.257 38.612H124.877ZM117.977 41.432H119.609V45.572C119.609 45.772 119.605 45.996 119.597 46.244C119.589 46.492 119.581 46.736 119.573 46.976C119.565 47.208 119.557 47.412 119.549 47.588C119.541 47.756 119.533 47.872 119.525 47.936H119.561L123.521 41.432H125.693V50H124.073V45.884C124.073 45.668 124.077 45.432 124.085 45.176C124.093 44.912 124.101 44.66 124.109 44.42C124.125 44.18 124.137 43.972 124.145 43.796C124.161 43.612 124.173 43.492 124.181 43.436H124.133L120.161 50H117.977V41.432ZM134.876 50H133.064V46.304H129.668V50H127.856V41.432H129.668V44.792H133.064V41.432H134.876V50ZM136.539 47.426C136.511 47.322 136.493 47.21 136.485 47.09C136.477 46.97 136.473 46.868 136.473 46.784C136.473 46.7 136.477 46.598 136.485 46.478C136.493 46.358 136.511 46.244 136.539 46.136H139.725C139.753 46.244 139.771 46.358 139.779 46.478C139.787 46.598 139.791 46.7 139.791 46.784C139.791 46.868 139.787 46.97 139.779 47.09C139.771 47.21 139.753 47.322 139.725 47.426H136.539ZM145.015 50L142.951 43.28H142.903C142.911 43.44 142.923 43.68 142.939 44C142.955 44.32 142.971 44.664 142.987 45.032C143.003 45.392 143.011 45.72 143.011 46.016V50H141.391V41.432H143.863L145.891 47.984H145.927L148.075 41.432H150.547V50H148.855V45.944C148.855 45.672 148.859 45.36 148.867 45.008C148.883 44.656 148.895 44.324 148.903 44.012C148.919 43.692 148.931 43.452 148.939 43.292H148.891L146.683 50H145.015ZM157.955 50L157.331 47.96H154.211L153.587 50H151.631L154.655 41.396H156.875L159.911 50H157.955ZM156.275 44.444C156.235 44.308 156.183 44.136 156.119 43.928C156.055 43.72 155.991 43.508 155.927 43.292C155.863 43.076 155.811 42.888 155.771 42.728C155.731 42.888 155.675 43.088 155.603 43.328C155.539 43.56 155.475 43.784 155.411 44C155.355 44.208 155.311 44.356 155.279 44.444L154.667 46.436H156.899L156.275 44.444ZM163.732 41.432C164.836 41.432 165.64 41.672 166.144 42.152C166.656 42.624 166.912 43.276 166.912 44.108C166.912 44.604 166.808 45.072 166.6 45.512C166.392 45.944 166.044 46.292 165.556 46.556C165.076 46.82 164.42 46.952 163.588 46.952H162.808V50H160.996V41.432H163.732ZM163.636 42.92H162.808V45.464H163.408C163.92 45.464 164.324 45.364 164.62 45.164C164.924 44.956 165.076 44.624 165.076 44.168C165.076 43.336 164.596 42.92 163.636 42.92ZM175.515 50H173.451L170.343 45.656V50H168.531V41.432H170.343V45.584L173.415 41.432H175.347L172.227 45.548L175.515 50ZM181.526 50H176.594V41.432H181.526V42.92H178.406V44.804H181.31V46.292H178.406V48.5H181.526V50ZM186.609 50H184.797V42.944H182.469V41.432H188.937V42.944H186.609V50Z" fill="#63A60E"/>
</svg>
